<mxfile host="app.diagrams.net" modified="2024-01-11T17:10:20.661Z" agent="Mozilla/5.0 (Windows NT 10.0; Win64; x64) AppleWebKit/537.36 (KHTML, like Gecko) Chrome/120.0.0.0 Safari/537.36" etag="IddQuoyjcVIgYIZBjwRy" version="22.1.16" type="device">
  <diagram name="第 1 页" id="6aMq6WDL0PpSIEaxIT3L">
    <mxGraphModel dx="1231" dy="1370" grid="1" gridSize="10" guides="1" tooltips="1" connect="1" arrows="1" fold="1" page="1" pageScale="1" pageWidth="827" pageHeight="1169" math="0" shadow="0">
      <root>
        <mxCell id="0" />
        <mxCell id="1" parent="0" />
        <mxCell id="dY8e-Cw5bnXpu609_Tf1-3" style="edgeStyle=orthogonalEdgeStyle;rounded=0;orthogonalLoop=1;jettySize=auto;html=1;exitX=0.5;exitY=1;exitDx=0;exitDy=0;" edge="1" parent="1" source="dY8e-Cw5bnXpu609_Tf1-1" target="dY8e-Cw5bnXpu609_Tf1-2">
          <mxGeometry relative="1" as="geometry" />
        </mxCell>
        <mxCell id="dY8e-Cw5bnXpu609_Tf1-30" value="wr_DATA" style="edgeLabel;html=1;align=center;verticalAlign=middle;resizable=0;points=[];" vertex="1" connectable="0" parent="dY8e-Cw5bnXpu609_Tf1-3">
          <mxGeometry x="-0.2218" relative="1" as="geometry">
            <mxPoint y="6" as="offset" />
          </mxGeometry>
        </mxCell>
        <mxCell id="dY8e-Cw5bnXpu609_Tf1-45" style="edgeStyle=orthogonalEdgeStyle;rounded=0;orthogonalLoop=1;jettySize=auto;html=1;exitX=0;exitY=0.5;exitDx=0;exitDy=0;" edge="1" parent="1" source="dY8e-Cw5bnXpu609_Tf1-1" target="dY8e-Cw5bnXpu609_Tf1-43">
          <mxGeometry relative="1" as="geometry" />
        </mxCell>
        <mxCell id="dY8e-Cw5bnXpu609_Tf1-46" value="oRATE" style="edgeLabel;html=1;align=center;verticalAlign=middle;resizable=0;points=[];" vertex="1" connectable="0" parent="dY8e-Cw5bnXpu609_Tf1-45">
          <mxGeometry x="0.5322" y="3" relative="1" as="geometry">
            <mxPoint x="-3" as="offset" />
          </mxGeometry>
        </mxCell>
        <mxCell id="dY8e-Cw5bnXpu609_Tf1-1" value="Receive FSM" style="rounded=0;whiteSpace=wrap;html=1;" vertex="1" parent="1">
          <mxGeometry x="230" y="-908.72" width="130" height="100" as="geometry" />
        </mxCell>
        <mxCell id="dY8e-Cw5bnXpu609_Tf1-13" style="edgeStyle=orthogonalEdgeStyle;rounded=0;orthogonalLoop=1;jettySize=auto;html=1;exitX=0.5;exitY=1;exitDx=0;exitDy=0;entryX=0.5;entryY=0;entryDx=0;entryDy=0;" edge="1" parent="1" source="dY8e-Cw5bnXpu609_Tf1-2" target="dY8e-Cw5bnXpu609_Tf1-4">
          <mxGeometry relative="1" as="geometry" />
        </mxCell>
        <mxCell id="dY8e-Cw5bnXpu609_Tf1-24" value="rd_DATA" style="edgeLabel;html=1;align=center;verticalAlign=middle;resizable=0;points=[];" vertex="1" connectable="0" parent="dY8e-Cw5bnXpu609_Tf1-13">
          <mxGeometry x="-0.1862" y="-1" relative="1" as="geometry">
            <mxPoint x="1" y="7" as="offset" />
          </mxGeometry>
        </mxCell>
        <mxCell id="dY8e-Cw5bnXpu609_Tf1-14" style="edgeStyle=orthogonalEdgeStyle;rounded=0;orthogonalLoop=1;jettySize=auto;html=1;exitX=0.25;exitY=1;exitDx=0;exitDy=0;entryX=0.25;entryY=0;entryDx=0;entryDy=0;" edge="1" parent="1" source="dY8e-Cw5bnXpu609_Tf1-2" target="dY8e-Cw5bnXpu609_Tf1-4">
          <mxGeometry relative="1" as="geometry" />
        </mxCell>
        <mxCell id="dY8e-Cw5bnXpu609_Tf1-20" value="full" style="edgeLabel;html=1;align=center;verticalAlign=middle;resizable=0;points=[];spacing=2;" vertex="1" connectable="0" parent="dY8e-Cw5bnXpu609_Tf1-14">
          <mxGeometry x="-0.1241" y="1" relative="1" as="geometry">
            <mxPoint x="-13" y="5" as="offset" />
          </mxGeometry>
        </mxCell>
        <mxCell id="dY8e-Cw5bnXpu609_Tf1-28" style="edgeStyle=orthogonalEdgeStyle;rounded=0;orthogonalLoop=1;jettySize=auto;html=1;exitX=0.75;exitY=1;exitDx=0;exitDy=0;entryX=0.75;entryY=0;entryDx=0;entryDy=0;" edge="1" parent="1" source="dY8e-Cw5bnXpu609_Tf1-2" target="dY8e-Cw5bnXpu609_Tf1-4">
          <mxGeometry relative="1" as="geometry" />
        </mxCell>
        <mxCell id="dY8e-Cw5bnXpu609_Tf1-29" value="empty" style="edgeLabel;html=1;align=center;verticalAlign=middle;resizable=0;points=[];" vertex="1" connectable="0" parent="dY8e-Cw5bnXpu609_Tf1-28">
          <mxGeometry x="-0.069" y="1" relative="1" as="geometry">
            <mxPoint x="18" y="3" as="offset" />
          </mxGeometry>
        </mxCell>
        <mxCell id="dY8e-Cw5bnXpu609_Tf1-2" value="FIFO" style="rounded=0;whiteSpace=wrap;html=1;" vertex="1" parent="1">
          <mxGeometry x="230" y="-748.72" width="130" height="100" as="geometry" />
        </mxCell>
        <mxCell id="dY8e-Cw5bnXpu609_Tf1-19" style="edgeStyle=orthogonalEdgeStyle;rounded=0;orthogonalLoop=1;jettySize=auto;html=1;exitX=0;exitY=0.5;exitDx=0;exitDy=0;entryX=0;entryY=0.5;entryDx=0;entryDy=0;" edge="1" parent="1" source="dY8e-Cw5bnXpu609_Tf1-4" target="dY8e-Cw5bnXpu609_Tf1-2">
          <mxGeometry relative="1" as="geometry">
            <mxPoint x="410.0000000000001" y="-678.72" as="targetPoint" />
            <mxPoint x="424" y="-403.72" as="sourcePoint" />
            <Array as="points">
              <mxPoint x="200" y="-538.72" />
              <mxPoint x="200" y="-698.72" />
            </Array>
          </mxGeometry>
        </mxCell>
        <mxCell id="dY8e-Cw5bnXpu609_Tf1-22" value="RD" style="edgeLabel;html=1;align=center;verticalAlign=middle;resizable=0;points=[];" vertex="1" connectable="0" parent="dY8e-Cw5bnXpu609_Tf1-19">
          <mxGeometry x="-0.0111" relative="1" as="geometry">
            <mxPoint y="-1" as="offset" />
          </mxGeometry>
        </mxCell>
        <mxCell id="dY8e-Cw5bnXpu609_Tf1-32" style="edgeStyle=orthogonalEdgeStyle;rounded=0;orthogonalLoop=1;jettySize=auto;html=1;exitX=0.25;exitY=1;exitDx=0;exitDy=0;entryX=0.25;entryY=0;entryDx=0;entryDy=0;" edge="1" parent="1" source="dY8e-Cw5bnXpu609_Tf1-4" target="dY8e-Cw5bnXpu609_Tf1-31">
          <mxGeometry relative="1" as="geometry" />
        </mxCell>
        <mxCell id="dY8e-Cw5bnXpu609_Tf1-33" value="oDEC_DATA" style="edgeLabel;html=1;align=center;verticalAlign=middle;resizable=0;points=[];" vertex="1" connectable="0" parent="dY8e-Cw5bnXpu609_Tf1-32">
          <mxGeometry x="-0.0279" y="-1" relative="1" as="geometry">
            <mxPoint x="1" as="offset" />
          </mxGeometry>
        </mxCell>
        <mxCell id="dY8e-Cw5bnXpu609_Tf1-41" style="edgeStyle=orthogonalEdgeStyle;rounded=0;orthogonalLoop=1;jettySize=auto;html=1;exitX=0.75;exitY=1;exitDx=0;exitDy=0;entryX=0.75;entryY=0;entryDx=0;entryDy=0;" edge="1" parent="1" source="dY8e-Cw5bnXpu609_Tf1-4" target="dY8e-Cw5bnXpu609_Tf1-31">
          <mxGeometry relative="1" as="geometry" />
        </mxCell>
        <mxCell id="dY8e-Cw5bnXpu609_Tf1-42" value="oDATA en" style="edgeLabel;html=1;align=center;verticalAlign=middle;resizable=0;points=[];" vertex="1" connectable="0" parent="dY8e-Cw5bnXpu609_Tf1-41">
          <mxGeometry x="0.0638" y="2" relative="1" as="geometry">
            <mxPoint y="-4" as="offset" />
          </mxGeometry>
        </mxCell>
        <mxCell id="dY8e-Cw5bnXpu609_Tf1-4" value="ASCII to DEC" style="rounded=0;whiteSpace=wrap;html=1;" vertex="1" parent="1">
          <mxGeometry x="230" y="-588.72" width="130" height="100" as="geometry" />
        </mxCell>
        <mxCell id="dY8e-Cw5bnXpu609_Tf1-97" style="edgeStyle=orthogonalEdgeStyle;rounded=0;orthogonalLoop=1;jettySize=auto;html=1;exitX=1;exitY=0.5;exitDx=0;exitDy=0;entryX=0;entryY=0.5;entryDx=0;entryDy=0;" edge="1" parent="1" source="dY8e-Cw5bnXpu609_Tf1-31" target="dY8e-Cw5bnXpu609_Tf1-80">
          <mxGeometry relative="1" as="geometry" />
        </mxCell>
        <mxCell id="dY8e-Cw5bnXpu609_Tf1-100" value="oScroller DEC" style="edgeLabel;html=1;align=center;verticalAlign=middle;resizable=0;points=[];" vertex="1" connectable="0" parent="dY8e-Cw5bnXpu609_Tf1-97">
          <mxGeometry x="-0.1857" y="2" relative="1" as="geometry">
            <mxPoint x="5" y="-9" as="offset" />
          </mxGeometry>
        </mxCell>
        <mxCell id="dY8e-Cw5bnXpu609_Tf1-31" value="Scroller" style="rounded=0;whiteSpace=wrap;html=1;" vertex="1" parent="1">
          <mxGeometry x="230" y="-428.72" width="130" height="100" as="geometry" />
        </mxCell>
        <mxCell id="dY8e-Cw5bnXpu609_Tf1-50" style="edgeStyle=orthogonalEdgeStyle;rounded=0;orthogonalLoop=1;jettySize=auto;html=1;exitX=0.25;exitY=1;exitDx=0;exitDy=0;entryX=0.25;entryY=0;entryDx=0;entryDy=0;" edge="1" parent="1" source="dY8e-Cw5bnXpu609_Tf1-37" target="dY8e-Cw5bnXpu609_Tf1-38">
          <mxGeometry relative="1" as="geometry" />
        </mxCell>
        <mxCell id="dY8e-Cw5bnXpu609_Tf1-72" value="INI en" style="edgeLabel;html=1;align=center;verticalAlign=middle;resizable=0;points=[];" vertex="1" connectable="0" parent="dY8e-Cw5bnXpu609_Tf1-50">
          <mxGeometry x="-0.2231" y="-2" relative="1" as="geometry">
            <mxPoint x="-20" as="offset" />
          </mxGeometry>
        </mxCell>
        <mxCell id="dY8e-Cw5bnXpu609_Tf1-51" style="edgeStyle=orthogonalEdgeStyle;rounded=0;orthogonalLoop=1;jettySize=auto;html=1;exitX=0.5;exitY=1;exitDx=0;exitDy=0;entryX=0.5;entryY=0;entryDx=0;entryDy=0;" edge="1" parent="1" source="dY8e-Cw5bnXpu609_Tf1-37" target="dY8e-Cw5bnXpu609_Tf1-38">
          <mxGeometry relative="1" as="geometry" />
        </mxCell>
        <mxCell id="dY8e-Cw5bnXpu609_Tf1-74" value="NOR en" style="edgeLabel;html=1;align=center;verticalAlign=middle;resizable=0;points=[];" vertex="1" connectable="0" parent="dY8e-Cw5bnXpu609_Tf1-51">
          <mxGeometry x="-0.2231" relative="1" as="geometry">
            <mxPoint as="offset" />
          </mxGeometry>
        </mxCell>
        <mxCell id="dY8e-Cw5bnXpu609_Tf1-52" style="edgeStyle=orthogonalEdgeStyle;rounded=0;orthogonalLoop=1;jettySize=auto;html=1;exitX=0.75;exitY=1;exitDx=0;exitDy=0;entryX=0.75;entryY=0;entryDx=0;entryDy=0;" edge="1" parent="1" source="dY8e-Cw5bnXpu609_Tf1-37" target="dY8e-Cw5bnXpu609_Tf1-38">
          <mxGeometry relative="1" as="geometry" />
        </mxCell>
        <mxCell id="dY8e-Cw5bnXpu609_Tf1-75" value="RATE en" style="edgeLabel;html=1;align=center;verticalAlign=middle;resizable=0;points=[];" vertex="1" connectable="0" parent="dY8e-Cw5bnXpu609_Tf1-52">
          <mxGeometry x="-0.1547" y="-1" relative="1" as="geometry">
            <mxPoint x="26" y="-2" as="offset" />
          </mxGeometry>
        </mxCell>
        <mxCell id="dY8e-Cw5bnXpu609_Tf1-37" value="TX FSM" style="rounded=0;whiteSpace=wrap;html=1;" vertex="1" parent="1">
          <mxGeometry x="430" y="-908.72" width="130" height="100" as="geometry" />
        </mxCell>
        <mxCell id="dY8e-Cw5bnXpu609_Tf1-53" style="edgeStyle=orthogonalEdgeStyle;rounded=0;orthogonalLoop=1;jettySize=auto;html=1;exitX=0.5;exitY=1;exitDx=0;exitDy=0;entryX=0.5;entryY=0;entryDx=0;entryDy=0;" edge="1" parent="1" source="dY8e-Cw5bnXpu609_Tf1-38" target="dY8e-Cw5bnXpu609_Tf1-39">
          <mxGeometry relative="1" as="geometry" />
        </mxCell>
        <mxCell id="dY8e-Cw5bnXpu609_Tf1-76" value="MEM DATA" style="edgeLabel;html=1;align=center;verticalAlign=middle;resizable=0;points=[];" vertex="1" connectable="0" parent="dY8e-Cw5bnXpu609_Tf1-53">
          <mxGeometry x="-0.0565" y="1" relative="1" as="geometry">
            <mxPoint as="offset" />
          </mxGeometry>
        </mxCell>
        <mxCell id="dY8e-Cw5bnXpu609_Tf1-38" value="TX DATA MEM" style="rounded=0;whiteSpace=wrap;html=1;" vertex="1" parent="1">
          <mxGeometry x="430" y="-748.72" width="130" height="100" as="geometry" />
        </mxCell>
        <mxCell id="dY8e-Cw5bnXpu609_Tf1-68" style="edgeStyle=orthogonalEdgeStyle;rounded=0;orthogonalLoop=1;jettySize=auto;html=1;exitX=1;exitY=0.5;exitDx=0;exitDy=0;entryX=0.75;entryY=1;entryDx=0;entryDy=0;" edge="1" parent="1" source="dY8e-Cw5bnXpu609_Tf1-39" target="dY8e-Cw5bnXpu609_Tf1-62">
          <mxGeometry relative="1" as="geometry">
            <mxPoint x="630" y="-1020.8068716032609" as="targetPoint" />
            <Array as="points">
              <mxPoint x="600" y="-538.72" />
              <mxPoint x="600" y="-938.72" />
              <mxPoint x="488" y="-938.72" />
              <mxPoint x="488" y="-964.72" />
              <mxPoint x="488" y="-964.72" />
            </Array>
          </mxGeometry>
        </mxCell>
        <mxCell id="dY8e-Cw5bnXpu609_Tf1-78" value="TX DATA" style="edgeLabel;html=1;align=center;verticalAlign=middle;resizable=0;points=[];" vertex="1" connectable="0" parent="dY8e-Cw5bnXpu609_Tf1-68">
          <mxGeometry x="-0.1405" relative="1" as="geometry">
            <mxPoint as="offset" />
          </mxGeometry>
        </mxCell>
        <mxCell id="dY8e-Cw5bnXpu609_Tf1-39" value="UART TX" style="rounded=0;whiteSpace=wrap;html=1;" vertex="1" parent="1">
          <mxGeometry x="430" y="-588.72" width="130" height="100" as="geometry" />
        </mxCell>
        <mxCell id="dY8e-Cw5bnXpu609_Tf1-44" style="edgeStyle=orthogonalEdgeStyle;rounded=0;orthogonalLoop=1;jettySize=auto;html=1;exitX=0.5;exitY=1;exitDx=0;exitDy=0;entryX=0;entryY=0.5;entryDx=0;entryDy=0;" edge="1" parent="1" source="dY8e-Cw5bnXpu609_Tf1-43" target="dY8e-Cw5bnXpu609_Tf1-31">
          <mxGeometry relative="1" as="geometry" />
        </mxCell>
        <mxCell id="dY8e-Cw5bnXpu609_Tf1-47" value="DIV CLK" style="edgeLabel;html=1;align=center;verticalAlign=middle;resizable=0;points=[];" vertex="1" connectable="0" parent="dY8e-Cw5bnXpu609_Tf1-44">
          <mxGeometry x="-0.3244" y="2" relative="1" as="geometry">
            <mxPoint as="offset" />
          </mxGeometry>
        </mxCell>
        <mxCell id="dY8e-Cw5bnXpu609_Tf1-43" value="CLK Divider" style="rounded=0;whiteSpace=wrap;html=1;" vertex="1" parent="1">
          <mxGeometry x="30" y="-668.72" width="130" height="100" as="geometry" />
        </mxCell>
        <mxCell id="dY8e-Cw5bnXpu609_Tf1-62" value="Host" style="rounded=0;whiteSpace=wrap;html=1;" vertex="1" parent="1">
          <mxGeometry x="210" y="-1068.72" width="370" height="100" as="geometry" />
        </mxCell>
        <mxCell id="dY8e-Cw5bnXpu609_Tf1-65" value="" style="endArrow=classic;html=1;rounded=0;" edge="1" parent="1">
          <mxGeometry width="50" height="50" relative="1" as="geometry">
            <mxPoint x="290" y="-968.72" as="sourcePoint" />
            <mxPoint x="290" y="-908.72" as="targetPoint" />
          </mxGeometry>
        </mxCell>
        <mxCell id="dY8e-Cw5bnXpu609_Tf1-66" value="" style="endArrow=classic;html=1;rounded=0;entryX=0.46;entryY=0.001;entryDx=0;entryDy=0;entryPerimeter=0;" edge="1" parent="1" target="dY8e-Cw5bnXpu609_Tf1-37">
          <mxGeometry width="50" height="50" relative="1" as="geometry">
            <mxPoint x="290" y="-928.72" as="sourcePoint" />
            <mxPoint x="490" y="-928.72" as="targetPoint" />
            <Array as="points">
              <mxPoint x="490" y="-928.72" />
            </Array>
          </mxGeometry>
        </mxCell>
        <mxCell id="dY8e-Cw5bnXpu609_Tf1-79" value="RX DATA" style="edgeLabel;html=1;align=center;verticalAlign=middle;resizable=0;points=[];" vertex="1" connectable="0" parent="dY8e-Cw5bnXpu609_Tf1-66">
          <mxGeometry x="-0.1093" y="1" relative="1" as="geometry">
            <mxPoint y="-9" as="offset" />
          </mxGeometry>
        </mxCell>
        <mxCell id="dY8e-Cw5bnXpu609_Tf1-69" value="RX" style="text;html=1;strokeColor=none;fillColor=none;align=center;verticalAlign=middle;whiteSpace=wrap;rounded=0;" vertex="1" parent="1">
          <mxGeometry x="260" y="-1000.72" width="60" height="30" as="geometry" />
        </mxCell>
        <mxCell id="dY8e-Cw5bnXpu609_Tf1-71" value="TX" style="text;html=1;strokeColor=none;fillColor=none;align=center;verticalAlign=middle;whiteSpace=wrap;rounded=0;" vertex="1" parent="1">
          <mxGeometry x="457" y="-998.72" width="60" height="30" as="geometry" />
        </mxCell>
        <mxCell id="dY8e-Cw5bnXpu609_Tf1-80" value="DEC to SEG3" style="rounded=0;whiteSpace=wrap;html=1;" vertex="1" parent="1">
          <mxGeometry x="680" y="-428.72" width="130" height="100" as="geometry" />
        </mxCell>
        <mxCell id="dY8e-Cw5bnXpu609_Tf1-83" value="DEC to SEG2" style="rounded=0;whiteSpace=wrap;html=1;" vertex="1" parent="1">
          <mxGeometry x="680" y="-580" width="130" height="100" as="geometry" />
        </mxCell>
        <mxCell id="dY8e-Cw5bnXpu609_Tf1-86" value="DEC to SEG1" style="rounded=0;whiteSpace=wrap;html=1;" vertex="1" parent="1">
          <mxGeometry x="680" y="-720" width="130" height="100" as="geometry" />
        </mxCell>
        <mxCell id="dY8e-Cw5bnXpu609_Tf1-98" value="" style="endArrow=classic;html=1;rounded=0;entryX=0;entryY=0.5;entryDx=0;entryDy=0;" edge="1" parent="1" target="dY8e-Cw5bnXpu609_Tf1-86">
          <mxGeometry width="50" height="50" relative="1" as="geometry">
            <mxPoint x="630" y="-380" as="sourcePoint" />
            <mxPoint x="680" y="-428.72" as="targetPoint" />
            <Array as="points">
              <mxPoint x="630" y="-670" />
            </Array>
          </mxGeometry>
        </mxCell>
        <mxCell id="dY8e-Cw5bnXpu609_Tf1-99" value="" style="endArrow=classic;html=1;rounded=0;entryX=0;entryY=0.5;entryDx=0;entryDy=0;" edge="1" parent="1" target="dY8e-Cw5bnXpu609_Tf1-83">
          <mxGeometry width="50" height="50" relative="1" as="geometry">
            <mxPoint x="630" y="-530" as="sourcePoint" />
            <mxPoint x="680" y="-580" as="targetPoint" />
          </mxGeometry>
        </mxCell>
        <mxCell id="dY8e-Cw5bnXpu609_Tf1-101" value="" style="endArrow=none;html=1;rounded=0;" edge="1" parent="1">
          <mxGeometry width="50" height="50" relative="1" as="geometry">
            <mxPoint x="-10" y="-1100" as="sourcePoint" />
            <mxPoint x="860" y="-1100" as="targetPoint" />
          </mxGeometry>
        </mxCell>
        <mxCell id="dY8e-Cw5bnXpu609_Tf1-103" value="" style="endArrow=none;html=1;rounded=0;" edge="1" parent="1">
          <mxGeometry width="50" height="50" relative="1" as="geometry">
            <mxPoint x="-10" y="-280" as="sourcePoint" />
            <mxPoint x="860" y="-280" as="targetPoint" />
          </mxGeometry>
        </mxCell>
        <mxCell id="dY8e-Cw5bnXpu609_Tf1-104" value="" style="endArrow=none;html=1;rounded=0;" edge="1" parent="1">
          <mxGeometry width="50" height="50" relative="1" as="geometry">
            <mxPoint x="-10" y="-280" as="sourcePoint" />
            <mxPoint x="-10" y="-1100" as="targetPoint" />
          </mxGeometry>
        </mxCell>
        <mxCell id="dY8e-Cw5bnXpu609_Tf1-107" value="" style="endArrow=none;html=1;rounded=0;" edge="1" parent="1">
          <mxGeometry width="50" height="50" relative="1" as="geometry">
            <mxPoint x="860" y="-279.4667154947917" as="sourcePoint" />
            <mxPoint x="860" y="-1100" as="targetPoint" />
          </mxGeometry>
        </mxCell>
      </root>
    </mxGraphModel>
  </diagram>
</mxfile>
